<svg width="0" height="0" class="hidden">
  <symbol fill="none" xmlns="http://www.w3.org/2000/svg" viewBox="0 0 52 17" id="fish">
    <path fill-rule="evenodd" clip-rule="evenodd" d="M46.1772 13.1836C47.5159 14.7002 48.3699 15.5569 49.0431 16.0588C49.777 16.6059 50.0369 16.6322 50.3639 16.1925C50.7126 15.7237 50.8962 14.7229 51.0069 12.689C51.0804 11.3396 51.2402 10.064 51.5596 8.27802C52.0886 5.32074 52.1228 4.62381 51.7596 4.20167C51.3694 3.74823 50.8357 3.79914 49.4424 4.42266C45.3125 6.27077 44.9602 6.39699 43.7472 6.46291C42.7678 6.51612 41.8806 6.31063 41.2195 5.87749C40.9692 5.71345 40.9641 5.68851 41.1295 5.43601C41.4157 4.99917 41.3717 4.48378 41.0226 4.18343C40.7622 3.95947 40.599 3.9228 39.8605 3.92212C39.3878 3.92172 38.5697 4.00407 38.0422 4.10514C38.0422 4.10514 37.4645 4.28591 37.0831 4.2889C36.5472 4.29311 35.753 3.95128 35.753 3.95128C35.0213 3.76558 33.3468 3.39702 32.0315 3.13225C30.4888 2.82169 29.6962 2.61703 29.7981 2.55552L30.4026 2.18999L30.8493 1.9198L30.3468 1.9124C29.739 1.90345 28.7262 1.68091 27.8784 1.37009C26.4173 0.834409 25.0785 0.819951 23.7583 1.32558C23.1261 1.56771 22.7659 1.61523 20.9665 1.69385C17.9619 1.82505 15.5133 2.22441 11.6979 3.20526C8.50733 4.02566 5.72148 4.93278 1.62472 6.48558C1.00224 6.72152 0.419596 7.23879 0.419596 7.55547C0.419596 7.90825 0.717798 8.2951 1.65851 9.16265C2.2055 9.66709 2.65303 10.1525 2.65303 10.2414C2.65303 10.493 2.01724 10.8193 1.11033 11.0331C-0.248065 11.3533 -0.145649 11.5663 1.76552 12.395C2.84859 12.8646 3.26066 12.9815 4.33392 13.1233C5.037 13.2163 5.76302 13.3441 5.94727 13.4075C6.1315 13.4708 7.0109 13.6733 7.90146 13.8575C8.79203 14.0417 10.1489 14.3889 10.9168 14.629C13.8977 15.5613 15.8707 15.8237 19.1732 15.7271C20.3746 15.692 22.212 15.5539 23.2561 15.4204C25.1067 15.1837 25.1796 15.1824 26.1594 15.3719C27.0848 15.5509 29.7515 15.76 29.85 15.6613C29.9461 15.5651 29.6459 15.1883 29.2689 14.9322L28.8664 14.6586L29.2438 14.5984C29.4513 14.5653 30.1739 14.4579 30.8495 14.3598C31.5252 14.2618 32.7312 14.0352 33.5296 13.8564C35.3687 13.4446 36.8422 13.1914 37.3989 13.1914C37.6377 13.1914 38.1927 13.317 38.6321 13.4706C39.6063 13.8109 39.8816 13.8187 40.1857 13.5146C40.3948 13.3055 40.4124 13.2007 40.3444 12.5657C40.2705 11.8763 40.2794 11.8404 40.6032 11.5166C41.0321 11.0877 41.5217 11.0772 43.1492 11.4617C44.6995 11.8281 45.2641 12.1491 46.1772 13.1836ZM4.23807 7.30994C4.02543 7.30994 3.85305 7.13756 3.85305 6.92491C3.85305 6.71227 4.02543 6.53989 4.23807 6.53989C4.45072 6.53989 4.6231 6.71227 4.6231 6.92491C4.6231 7.13756 4.45072 7.30994 4.23807 7.30994Z" fill="black"></path>
  </symbol>
  <symbol fill="none" xmlns="http://www.w3.org/2000/svg" viewBox="0 0 51 61" id="cake">
    <path fill-rule="evenodd" clip-rule="evenodd" d="M38.4199 19.3145C38.4199 19.3145 45.2005 19.2703 47.9093 22.121C49.9622 24.2814 51.5044 26.343 50.8061 29.2931C50.3527 31.2086 49.5882 32.4304 47.9093 33.3469C41.8164 36.673 38.5082 37.4417 32.1269 38.4401C25.8391 39.4239 22.1359 39.4024 15.845 38.4401C11.2208 37.7327 9.45247 37.1927 4.25793 35.3218C2.47853 34.6809 1.38028 33.8643 0.56204 32.0995C-0.302478 30.235 -0.0642918 28.7634 0.56204 26.7984C1.27751 24.5538 4.25793 22.121 4.25793 22.121C4.25793 22.121 5.30649 25.2766 6.65526 26.7984C9.11861 29.5778 12.0166 29.4699 15.3953 29.3442C16.2779 29.3113 17.1934 29.2772 18.1425 29.2931C23.107 29.376 30.6286 26.7984 30.6286 26.7984C30.6286 26.7984 34.3193 25.0792 36.0226 23.1604C37.1899 21.8454 38.4199 19.3145 38.4199 19.3145ZM39.3118 26.2965L40.6125 22.849L41.9133 26.2965H46.1225L42.7171 28.4272L44.0179 31.8747L40.6125 29.744L37.2072 31.8747L38.5079 28.4272L35.1025 26.2965H39.3118ZM19.6421 30.5392L18.6553 33.1248H15.4621L18.0455 34.7228L17.0587 37.3085L19.6421 35.7105L22.2255 37.3085L21.2387 34.7228L23.8221 33.1248H20.6289L19.6421 30.5392ZM3.53849 29.2893L4.25614 27.4219L4.97378 29.2893H7.29613L5.41731 30.4434L6.13496 32.3108L4.25614 31.1567L2.37731 32.3108L3.09496 30.4434L1.21614 29.2893H3.53849ZM34.8223 33.6589L34.4186 34.6644H33.1123L34.1691 35.2859L33.7654 36.2914L34.8223 35.6699L35.8791 36.2914L35.4754 35.2859L36.5323 34.6644H35.226L34.8223 33.6589ZM26.828 30.9224L27.2317 29.9169L27.6353 30.9224H28.9417L27.8848 31.5439L28.2885 32.5494L27.2317 31.928L26.1748 32.5494L26.5785 31.5439L25.5217 30.9224H26.828ZM10.4479 31.3713L10.0442 32.3768H8.73791L9.79474 32.9982L9.39107 34.0038L10.4479 33.3823L11.5047 34.0038L11.1011 32.9982L12.1579 32.3768H10.8516L10.4479 31.3713ZM46.4043 28.0125L46.808 27.007L47.2117 28.0125H48.518L47.4611 28.634L47.8648 29.6395L46.808 29.0181L45.7511 29.6395L46.1548 28.634L45.098 28.0125H46.4043Z" fill="black"></path>
    <path fill-rule="evenodd" clip-rule="evenodd" d="M34.2335 14.7427C35.5843 16.0301 36.4066 17.2038 36.3312 19.1083C36.2689 20.678 35.5365 21.5335 34.5886 22.6407L34.5885 22.6408L34.5879 22.6415C34.4727 22.7761 34.3543 22.9144 34.2335 23.0582C32.5772 25.0297 30.8211 25.5209 28.6698 26.1227C28.061 26.293 27.4206 26.4722 26.7418 26.6962C23.0554 27.913 20.8095 28.5531 16.9527 28.2554C12.6839 27.9258 7.56328 26.2803 6.56429 24.6173C5.5653 22.9544 5.46541 22.2268 6.56429 20.2517C7.05408 19.3714 7.7934 18.9315 8.45741 18.5365C9.28318 18.0452 9.99247 17.6232 9.96051 16.5096C9.94976 16.1352 9.84639 15.8982 9.73333 15.639C9.62927 15.4005 9.517 15.1431 9.46117 14.7425C9.40922 14.3698 9.36074 14.1117 9.32303 13.911C9.2113 13.3163 9.1941 13.2247 9.46117 12.1439C9.63604 11.4363 10.6598 10.3769 10.6598 10.3769C10.5874 9.53377 10.4324 9.0629 10.2867 8.62025C10.1164 8.10299 9.95883 7.62427 9.96051 6.6351C9.96542 3.74505 10.7577 0.872401 13.4566 0.190599C14.3285 -0.029655 14.9 -0.0953003 15.7541 0.190599C16.8589 0.56044 17.024 1.5768 17.202 2.67356C17.3451 3.55504 17.4967 4.48845 18.1514 5.17989C18.3129 5.35051 18.4444 5.51633 18.5678 5.67202C18.9214 6.11802 19.209 6.48088 19.9494 6.6351C20.4723 6.74403 20.9543 6.39596 21.4883 6.01027C21.9743 5.65929 22.5034 5.27716 23.1458 5.17989C25.1874 4.87076 27.397 4.67577 28.2402 6.6351C28.6276 7.53551 28.4942 8.22394 28.3205 9.12054C28.2941 9.25689 28.2668 9.39806 28.2402 9.54552C28.1302 10.1552 27.6579 10.6878 27.2279 11.1727C26.6378 11.8382 26.1274 12.4139 26.7418 12.9757C27.2149 13.4082 27.7018 13.2821 28.2564 13.1385C28.5606 13.0597 28.8852 12.9757 29.239 12.9757C30.2379 12.9757 32.7143 13.2948 34.2335 14.7427ZM15.8514 6.01181L14.6853 9.74662H10.9114L13.9645 12.0549L12.7983 15.7897L15.8514 13.4814L18.9045 15.7897L17.7383 12.0549L20.7914 9.74662H17.0176L15.8514 6.01181ZM25.3462 16.9921L26.2432 14.1192L27.1403 16.9921H30.0432L27.6947 18.7677L28.5918 21.6406L26.2432 19.8651L23.8947 21.6406L24.7918 18.7677L22.4432 16.9921H25.3462ZM16.4536 17.4452L16.2742 18.0197H15.6936L16.1633 18.3749L15.9839 18.9494L16.4536 18.5943L16.9233 18.9494L16.7439 18.3749L17.2136 18.0197H16.633L16.4536 17.4452ZM32.8133 18.1634L33.0376 17.4452L33.2618 18.1634H33.9876L33.4004 18.6073L33.6247 19.3255L33.0376 18.8816L32.4504 19.3255L32.6747 18.6073L32.0876 18.1634H32.8133ZM13.85 2.47726L13.6258 3.1955H12.9L13.4872 3.63939L13.2629 4.35762L13.85 3.91373L14.4372 4.35762L14.2129 3.63939L14.8 3.1955H14.0743L13.85 2.47726ZM23.4837 10.2795L23.8425 9.13032L24.2013 10.2795H25.3625L24.4231 10.9897L24.7819 12.1389L23.8425 11.4287L22.9031 12.1389L23.2619 10.9897L22.3225 10.2795H23.4837ZM10.6525 20.7711L10.2937 21.9203H9.13255L10.072 22.6305L9.71314 23.7797L10.6525 23.0694L11.592 23.7797L11.2331 22.6305L12.1725 21.9203H11.0114L10.6525 20.7711ZM22.2842 23.7907L22.643 22.6415L23.0018 23.7907H24.163L23.2236 24.5009L23.5824 25.6501L22.643 24.9398L21.7036 25.6501L22.0624 24.5009L21.123 23.7907H22.2842Z" fill="black"></path>
    <path fill-rule="evenodd" clip-rule="evenodd" d="M37.2343 37.9358C40.5648 37.1259 45.625 35.3242 45.625 35.3242C45.625 35.3242 41.6538 55.8829 40.4308 56.9445C39.2078 58.006 30.9694 60.7523 24.6484 60.6864C18.5932 60.6233 10.733 58.006 9.56514 56.9445C8.39729 55.8829 4.57071 36.0518 4.57071 36.0518C4.57071 36.0518 8.24057 37.5562 12.0624 38.2708C16.9326 39.1814 20.833 39.8083 24.6484 39.7938C28.8518 39.7778 32.4003 39.1115 37.2343 37.9358ZM43.0316 38.2341L39.036 55.6966L38.6296 55.5959L42.6252 38.1334L43.0316 38.2341ZM33.0322 57.9582L34.8388 40.1057L34.4226 40.0601L32.616 57.9126L33.0322 57.9582ZM25.0436 59.0953V41.1446H25.4622V59.0953H25.0436ZM6.97758 38.2348L10.8627 55.7243L11.2698 55.6264L7.38466 38.1369L6.97758 38.2348ZM17.4577 57.9349L15.4579 40.1051L15.8735 40.0546L17.8733 57.8844L17.4577 57.9349Z" fill="black"></path>
  </symbol>
  <symbol fill="none" xmlns="http://www.w3.org/2000/svg" viewBox="0 0 54 35" id="lobster">
    <path fill-rule="evenodd" clip-rule="evenodd" d="M16.1629 34.315C16.1365 34.2623 16.198 34.1044 16.3033 33.9552C16.4612 33.7446 16.47 33.6744 16.3822 33.5603C16.2857 33.4462 16.2945 33.4111 16.4349 33.3058C16.5226 33.2356 16.663 33.183 16.7332 33.183C16.8122 33.183 17.0228 33.1391 17.1983 33.0952C17.4791 33.0162 17.5318 32.9548 17.5844 32.674C17.6195 32.4985 17.7863 32.1826 17.953 31.972L18.2601 31.5947L18.1109 31.1033C18.0353 30.8627 17.9894 30.7164 18.0304 30.601C18.0942 30.4217 18.368 30.3172 19.0674 30.0503C19.1606 30.0142 19.2437 29.9829 19.3182 29.9549C19.6262 29.8392 19.7853 29.7794 19.8834 29.6665C19.9884 29.5458 20.0236 29.3645 20.0965 28.9892C20.1114 28.9126 20.1278 28.8279 20.1468 28.734C20.1738 28.5874 20.1889 28.5053 20.2376 28.457C20.2997 28.3954 20.4165 28.389 20.6821 28.3742C21.1296 28.3479 21.191 28.3128 21.6298 27.8652C21.8843 27.602 22.1387 27.3914 22.1914 27.3914C22.2528 27.3914 22.2704 27.2773 22.2265 27.0755C22.1738 26.7859 22.2002 26.7157 22.4897 26.4261L22.8056 26.1014L22.4108 25.9874L22.0071 25.8733L21.4279 26.5051C21.0769 26.8824 20.6557 27.2334 20.4013 27.3651C19.9976 27.5669 19.9274 27.5757 19.6203 27.4704C19.436 27.4089 19.2605 27.3914 19.2166 27.4265C19.1815 27.4616 19.1113 27.7336 19.0674 28.032L18.9797 28.576L18.5322 28.5497C18.1285 28.5234 18.0846 28.5409 17.9881 28.7515C17.9003 28.9534 17.8389 28.9797 17.6459 28.927C17.4704 28.8832 17.3651 28.927 17.172 29.1113C16.979 29.2956 16.8737 29.3307 16.6367 29.2956C16.4173 29.2605 16.2682 29.3044 16.0137 29.4799C15.7855 29.629 15.6539 29.6729 15.5925 29.6115C15.5311 29.5501 15.5837 29.0411 15.768 28.0056L16.04 26.4875L17.1896 24.9694C18.4883 23.2583 19.7519 22.0034 20.8663 21.3102C21.4894 20.9329 21.5771 20.8978 22.6214 20.7662C23.6305 20.6345 23.8411 20.6345 25.2978 20.7662C25.5276 20.7863 25.733 20.8047 25.9167 20.8212C27.1058 20.928 27.3887 20.9534 27.502 20.8269C27.5373 20.7874 27.5562 20.7331 27.5809 20.6618C27.5928 20.6275 27.6061 20.5892 27.6232 20.5468C27.711 20.3274 27.7636 20.1168 27.7373 20.0817C27.711 20.0466 27.0791 20.0378 26.3245 20.0641C25.1398 20.1168 24.5782 20.0817 22.3142 19.8535C18.9534 19.5025 18.225 19.327 16.7069 18.4495C16.1278 18.1161 15.3117 17.6773 14.8992 17.4755C14.4166 17.2298 13.9077 16.8788 13.4513 16.4663L12.7493 15.8433L11.9157 16.0364C11.4594 16.1417 11.0733 16.2645 11.0645 16.3084C10.968 16.5716 10.7837 16.8086 10.5907 16.9314C10.2747 17.1157 9.87986 16.949 9.62539 16.5365C9.46743 16.2821 9.44988 16.168 9.51131 15.9047C9.59029 15.6064 9.60783 15.5888 10.0027 15.5625C10.2309 15.5449 10.5643 15.5713 10.7311 15.6239C10.9329 15.6766 11.24 15.6766 11.591 15.6239C11.6507 15.6151 11.7066 15.607 11.7589 15.5994C12.2038 15.5348 12.3934 15.5073 12.4735 15.3988C12.533 15.3183 12.5321 15.1931 12.5305 14.975C12.5303 14.9369 12.53 14.8958 12.53 14.8517C12.53 14.527 12.5124 14.2374 12.4861 14.2199C12.4685 14.1936 12.1439 14.2023 11.7841 14.2462C11.2663 14.2989 11.047 14.3691 10.81 14.5534C10.5117 14.7815 10.4941 14.7815 10.1958 14.6411C9.87986 14.4919 9.69559 14.1585 9.73946 13.8426C9.78334 13.5705 10.2309 13.4828 10.9329 13.6056C11.3365 13.6846 11.749 13.6934 12.2667 13.6407L13.0126 13.5705L13.425 12.8773C14.1446 11.6576 14.3201 11.5347 16.5226 10.6484C18.146 9.99905 18.4707 9.83233 18.5848 9.6305C18.7077 9.40234 18.7077 9.38479 18.4532 9.17419C18.3128 9.06011 17.9267 8.82319 17.6108 8.65646C17.093 8.38443 17.0141 8.36688 16.9175 8.48973C16.8473 8.55993 16.7157 8.61258 16.6104 8.59503C16.4788 8.57748 16.1804 8.77931 15.6276 9.26194C15.1888 9.63927 14.2236 10.315 13.4864 10.7713C12.2316 11.5347 12.0122 11.64 10.4239 12.1665L10.4232 12.1668L10.4232 12.1668C8.73031 12.7281 8.70386 12.7369 7.74751 12.7369C5.92228 12.7369 3.84257 12.3771 2.5614 11.8506C1.57858 11.447 1.40308 11.3241 1.57858 11.1837C1.64001 11.131 2.12264 10.9643 2.64915 10.8064C3.42136 10.587 3.64951 10.5431 3.81624 10.6221C4.13215 10.7625 4.15847 10.7449 4.30765 10.3764C4.38663 10.1833 4.49193 10.0078 4.54458 9.97273C4.59723 9.93763 4.93946 10.0078 5.30802 10.1131C5.68535 10.2272 5.99248 10.2799 6.01003 10.236C6.02758 10.1833 6.11533 10.0166 6.22063 9.84988C6.37858 9.58662 6.43123 9.5603 6.69449 9.60417C6.93142 9.63927 7.01039 9.61295 7.10692 9.47255C7.21222 9.30582 7.27365 9.29704 7.58078 9.37602C7.87036 9.44622 7.98443 9.42867 8.33544 9.25317C8.69522 9.07766 8.93215 8.84074 8.93215 8.65646C8.93215 8.63013 8.71277 8.61258 8.44074 8.63013C7.94056 8.65646 7.94056 8.65646 7.83526 8.3581C7.78261 8.19138 7.69485 8.0422 7.6422 8.02465C7.59833 8.0071 7.40527 8.17383 7.22977 8.3932C6.87877 8.81441 6.71204 8.87584 6.58041 8.64768C6.50144 8.51606 6.46633 8.51606 6.089 8.65646C5.69412 8.80564 5.65902 8.80564 5.42209 8.66523C5.18516 8.52483 5.15884 8.53361 4.87803 8.70033C4.72008 8.79686 4.5358 8.87584 4.48315 8.87584C4.42173 8.87584 4.255 8.63891 4.10582 8.34933C3.95664 8.05975 3.81624 7.82282 3.79869 7.82282C3.77237 7.82282 3.43891 7.98077 3.0528 8.17383C2.6667 8.36688 2.29814 8.52483 2.22794 8.52483C2.15774 8.52483 2.01734 8.38443 1.91204 8.2177C1.80673 8.05097 1.69266 7.91057 1.64878 7.91057C1.61368 7.91057 1.41185 8.05097 1.20125 8.2177C0.718617 8.63013 0.534339 8.72666 0.464138 8.61258C0.332511 8.3932 0.709842 6.64695 1.13105 5.56761L1.56103 4.44439L2.42099 3.58443C3.22831 2.75956 3.33361 2.68936 4.57968 2.06633C5.7731 1.46084 5.99248 1.38187 7.2912 1.10106L8.69522 0.785156L10.1694 0.881683L11.6437 0.986984L13.0301 1.60124C14.3025 2.16285 14.4868 2.26816 15.2327 2.92629C15.9961 3.60198 16.0839 3.71605 16.6016 4.70764C16.9088 5.2868 17.251 6.01514 17.3563 6.33105C17.4704 6.64695 17.5932 6.94531 17.6371 6.99796C17.6722 7.05061 18.1724 7.29631 18.734 7.55079C19.6817 7.96322 19.7958 8.0422 20.138 8.48096L20.5153 8.96359H22.2002C23.1303 8.96359 25.0609 8.90216 26.4824 8.83196C26.749 8.81863 26.9926 8.80631 27.2151 8.79506C29.2476 8.69224 29.5263 8.67814 29.5992 8.79377C29.6108 8.81214 29.6171 8.83379 29.6245 8.85888C29.6292 8.87483 29.6344 8.89217 29.6415 8.91094C29.7205 9.11276 29.738 9.12154 31.2824 9.18297C32.6689 9.23562 33.3183 9.33214 37.0916 9.97273C40.9263 10.6309 41.3563 10.7186 41.4879 10.8941C41.6196 11.0608 41.7775 11.1047 42.7428 11.2012C43.357 11.2715 43.8923 11.3504 43.945 11.3768C43.9976 11.4119 44.0766 11.5259 44.1205 11.64C44.1819 11.7892 44.2872 11.8506 44.6206 11.8945C44.8488 11.9296 45.3402 12.0524 45.7 12.1665C46.0598 12.2806 46.5161 12.3947 46.7091 12.4298C46.9022 12.4649 47.3936 12.6667 47.7885 12.8861C48.4993 13.2634 48.7713 13.3512 52.3428 14.3076C52.6499 14.3954 52.7464 14.4744 52.9746 14.8693C53.3782 15.5888 53.659 16.4225 53.8609 17.5281C54.0451 18.5197 54.0452 18.5724 53.896 19.1077C53.817 19.4148 53.6941 19.7131 53.6327 19.7658C53.545 19.836 53.3256 19.836 52.8342 19.7658C52.255 19.6956 52.0795 19.7044 51.6759 19.8272L51.2108 19.9676L50.9387 19.6254C50.7896 19.4323 50.0963 18.6952 49.3943 17.9844C48.3764 16.949 48.0693 16.6857 47.885 16.6857C47.3058 16.6857 45.0068 17.3175 44.0327 17.7475C43.4799 17.9932 43.0148 18.2038 42.9972 18.2214C42.9797 18.2389 43.3044 18.432 43.7256 18.6601C44.1731 18.9058 44.4715 19.1252 44.4539 19.1866C44.4188 19.3358 40.7771 23.4338 40.6104 23.4952C40.4239 23.5687 40.7472 22.983 41.1909 22.1792C41.4359 21.7353 41.7177 21.2249 41.9706 20.7223C42.383 19.8886 42.7164 19.1954 42.6989 19.1866C42.6813 19.1691 42.4181 19.0638 42.1022 18.9409L41.5318 18.7303L41.0755 18.9497C40.821 19.0813 40.6104 19.2042 40.6104 19.2393C40.6104 19.2656 40.7684 19.406 40.9614 19.5376C41.1632 19.678 41.3124 19.8448 41.2949 19.9062C41.2598 20.0729 37.7494 24.1095 37.6002 24.1709C37.4385 24.2402 37.7124 23.8545 38.1156 23.2868C38.4781 22.7763 38.9452 22.1186 39.2941 21.512C39.7417 20.7311 40.0927 20.0817 40.0751 20.0641C40.0643 20.0587 39.9796 19.9896 39.8627 19.894L39.8624 19.8938C39.7903 19.8348 39.7058 19.7659 39.6188 19.6956C39.3935 19.5078 39.2887 19.4205 39.1702 19.3933C39.0671 19.3697 38.9535 19.3915 38.7413 19.4323C38.4868 19.4762 38.2762 19.5289 38.2587 19.5464C38.2411 19.5552 38.2762 19.6429 38.3376 19.7395C38.4342 19.8886 38.4254 19.9501 38.3201 20.0817C38.2411 20.1694 37.5567 20.968 36.7932 21.863C36.0298 22.7581 35.3541 23.5215 35.2927 23.5566C35.2137 23.6005 35.1523 23.583 35.1172 23.4952C35.0733 23.3811 35.5296 22.5387 36.6791 20.5731L36.8459 20.2923L36.2316 19.9501C35.6174 19.6166 35.5998 19.6166 35.0821 19.6956C34.7925 19.7395 34.5556 19.8097 34.5556 19.8535C34.5556 19.8886 34.6784 20.0027 34.8188 20.108C34.968 20.2133 35.0821 20.3449 35.0821 20.3976C35.0821 20.5117 31.4492 24.6711 31.2561 24.7852C31.1771 24.829 31.1157 24.8115 31.0806 24.7237C31.0455 24.6448 31.2912 24.2148 31.6773 23.6444C31.8685 23.3693 32.1266 22.9951 32.3831 22.6232C32.6093 22.2951 32.8343 21.9688 33.0111 21.7139L33.6868 20.7311L32.9936 20.38L32.3004 20.029L30.712 20.1958C29.8345 20.2835 29.0799 20.38 29.0272 20.4151C28.9833 20.4415 28.9395 20.5204 28.9395 20.5906C28.9395 20.6609 28.7376 20.9504 28.5007 21.24C28.4856 21.2582 28.4709 21.2758 28.4567 21.2929C28.3138 21.4641 28.2154 21.5821 28.1606 21.7178C28.0392 22.0188 28.1329 22.4067 28.4346 23.6552C28.4475 23.7085 28.4607 23.7634 28.4744 23.8199L28.7815 25.1098L28.4568 26.4086L28.1322 27.7161L27.0791 29.3482L26.0261 30.9804L23.2444 32.5161L20.4715 34.0605L19.164 34.236C17.7248 34.429 16.2594 34.4729 16.1629 34.315ZM14.3939 13.3339C14.3939 13.4308 14.4725 13.5094 14.5694 13.5094C14.6663 13.5094 14.7449 13.4308 14.7449 13.3339C14.7449 13.237 14.6663 13.1584 14.5694 13.1584C14.4725 13.1584 14.3939 13.237 14.3939 13.3339ZM14.7449 14.8257C14.648 14.8257 14.5694 14.7471 14.5694 14.6502C14.5694 14.5532 14.648 14.4747 14.7449 14.4747C14.8418 14.4747 14.9204 14.5532 14.9204 14.6502C14.9204 14.7471 14.8418 14.8257 14.7449 14.8257Z" fill="black"></path>
  </symbol>
</svg>